<?xml version="1.0" encoding="utf-8"?>
<svg version="1.1" id="Layer_1"
xmlns="http://www.w3.org/2000/svg"
xmlns:xlink="http://www.w3.org/1999/xlink"
width="72px" height="72px"
xml:space="preserve">
<g id="PathID_5" transform="matrix(0.706518, 0, 0, 0.706518, 23.05, 48.95)" opacity="1">
<path style="fill:#00CFFF;fill-opacity:1" d="M28 0L28 -16.35L8.95 -16.35L8.95 0L4.2 0L4.2 -35.25L8.95 -35.25L8.95 -20.35L28 -20.35L28 -35.25L32.8 -35.25L32.8 0L28 0" />
</g>
<g id="PathID_6" transform="matrix(0.706518, 0, 0, 0.706518, 23.05, 48.95)" opacity="1">
</g>
<g id="PathID_7" transform="matrix(0.376809, 0, 0, 0.376809, 7.2, 8.85)" opacity="1">
<path style="fill:#00CFFF;fill-opacity:1" d="M133.95 5.4Q146.9 4.7 144 23.25Q143.15 28.65 140.3 39.2Q138.15 48.8 139.5 55.55Q140.45 60 145.65 74.25Q149.9 85.65 150 93.5Q150 115.6 123.1 130.85Q109.2 138.65 96.1 143.75L85.85 147.55Q79.7 149.35 75 149.4Q70.25 149.35 64.1 147.55Q61 146.6 53.8 143.75Q40.7 138.65 26.85 130.85Q-0.15 115.6 0 93.5Q0.05 85.65 4.3 74.25Q9.6 60 10.45 55.55Q11.85 48.8 9.75 39.2Q6.85 28.65 6 23.25Q3.1 4.7 16 5.4Q18.5 5.55 21.95 6.55L27.65 8.15Q34.45 9.8 39.35 7.15L44.25 2.8Q47.2 -0.05 49.75 0Q52.2 0.15 55.75 3.05L61.1 7.45Q68.55 11.9 75 12.5Q81.45 11.9 88.9 7.45L94.3 3.05Q97.75 0.15 100.25 0Q102.75 -0.05 105.7 2.8L110.65 7.15Q115.45 9.8 122.25 8.15L128.05 6.55Q131.45 5.55 133.95 5.4M134.9 12.4L134.4 12.4Q132.2 12.55 127.75 13.85L122.75 15.25L117.2 15.9Q112 15.9 107.25 13.3Q105.15 12.15 101.95 8.9L100.25 7.3L97.05 9.8L92.5 13.35Q83.75 18.8 75.6 19.45L75 19.5L74.35 19.45Q66.3 18.8 57.4 13.35Q55.8 12.35 52.95 9.8L49.7 7.3L48 8.9Q44.75 12.15 42.75 13.3Q38 15.9 32.8 15.9L27.2 15.25L22.25 13.85Q17.7 12.55 15.65 12.4L15.1 12.4Q13.55 12.4 13.3 12.8Q12.85 13.2 12.65 14.65Q12.1 17.5 12.9 22.15Q13.35 24.85 14.95 31.55Q16.95 39.2 17.55 43.6Q18.5 50.75 17.25 56.9Q16.55 60.8 15 65.3L12.1 73.15Q9.6 80 8.65 83.35Q7 88.9 7 93.6Q7 103.05 13.55 111.3Q19.35 118.55 30.3 124.8Q43.85 132.35 56.4 137.25L57.4 137.7L66.2 140.9Q71.35 142.4 75 142.4Q78.65 142.4 83.7 140.9L92.5 137.7L93.6 137.25Q106.3 132.3 119.65 124.8Q130.65 118.55 136.4 111.3Q143.05 103.05 143 93.6Q142.9 88.9 141.4 83.35L137.85 73.15Q133.9 62.8 132.65 56.9Q131.5 50.75 132.45 43.6Q133 39.3 134.95 31.55Q136.65 25.35 137.05 22.15Q137.85 17.5 137.35 14.65L136.7 12.8Q136.4 12.4 134.9 12.4" />
</g>
<g id="PathID_8" transform="matrix(0.376809, 0, 0, 0.376809, 7.2, 8.85)" opacity="1">
</g>
</svg>
