<?xml version="1.0" encoding="utf-8"?>
<svg version="1.1" id="Layer_1"
xmlns="http://www.w3.org/2000/svg"
xmlns:xlink="http://www.w3.org/1999/xlink"
width="72px" height="72px"
xml:space="preserve">
<g id="PathID_9" transform="matrix(0.706518, 0, 0, 0.706518, 23.05, 48.95)" opacity="1">
<path style="fill:#00CFFF;fill-opacity:1" d="M28 0L28 -16.35L8.95 -16.35L8.95 0L4.2 0L4.2 -35.25L8.95 -35.25L8.95 -20.35L28 -20.35L28 -35.25L32.8 -35.25L32.8 0L28 0" />
</g>
<g id="PathID_10" transform="matrix(0.706518, 0, 0, 0.706518, 23.05, 48.95)" opacity="1">
<path style="fill:none;stroke-width:2.6;stroke-linecap:round;stroke-linejoin:round;stroke-miterlimit:3;stroke:#00CFFF;stroke-opacity:1" d="M27.95 0L27.95 -16.35L8.9 -16.35L8.9 0L4.2 0L4.2 -35.25L8.9 -35.25L8.9 -20.3L27.95 -20.3L27.95 -35.25L32.75 -35.25L32.75 0L27.95 0z" />
</g>
<g id="PathID_11" transform="matrix(0.376809, 0, 0, 0.376809, 7.2, 8.85)" opacity="1">
<path style="fill:#00CFFF;fill-opacity:1" d="M133.95 5.4Q146.9 4.7 144 23.25Q143.15 28.65 140.3 39.2Q138.15 48.8 139.5 55.55Q140.45 60 145.65 74.25Q149.9 85.65 150 93.5Q150 115.6 123.1 130.85Q109.2 138.65 96.1 143.75L85.85 147.55Q79.7 149.35 75 149.4Q70.25 149.35 64.1 147.55Q61 146.6 53.8 143.75Q40.7 138.65 26.85 130.85Q-0.15 115.6 0 93.5Q0.05 85.65 4.3 74.25Q9.6 60 10.45 55.55Q11.85 48.8 9.75 39.2Q6.85 28.65 6 23.25Q3.1 4.7 16 5.4Q18.5 5.55 21.95 6.55L27.65 8.15Q34.45 9.8 39.35 7.15L44.25 2.8Q47.2 -0.05 49.75 0Q52.2 0.15 55.75 3.05L61.1 7.45Q68.55 11.9 75 12.5Q81.45 11.9 88.9 7.45L94.3 3.05Q97.75 0.15 100.25 0Q102.75 -0.05 105.7 2.8L110.65 7.15Q115.45 9.8 122.25 8.15L128.05 6.55Q131.45 5.55 133.95 5.4M134.9 12.4L134.4 12.4Q132.2 12.55 127.75 13.85L122.75 15.25L117.2 15.9Q112 15.9 107.25 13.3Q105.15 12.15 101.95 8.9L100.25 7.3L97.05 9.8L92.5 13.35Q83.75 18.8 75.6 19.45L75 19.5L74.35 19.45Q66.3 18.8 57.4 13.35Q55.8 12.35 52.95 9.8L49.7 7.3L48 8.9Q44.75 12.15 42.75 13.3Q38 15.9 32.8 15.9L27.2 15.25L22.25 13.85Q17.7 12.55 15.65 12.4L15.1 12.4Q13.55 12.4 13.3 12.8Q12.85 13.2 12.65 14.65Q12.1 17.5 12.9 22.15Q13.35 24.85 14.95 31.55Q16.95 39.2 17.55 43.6Q18.5 50.75 17.25 56.9Q16.55 60.8 15 65.3L12.1 73.15Q9.6 80 8.65 83.35Q7 88.9 7 93.6Q7 103.05 13.55 111.3Q19.35 118.55 30.3 124.8Q43.85 132.35 56.4 137.25L57.4 137.7L66.2 140.9Q71.35 142.4 75 142.4Q78.65 142.4 83.7 140.9L92.5 137.7L93.6 137.25Q106.3 132.3 119.65 124.8Q130.65 118.55 136.4 111.3Q143.05 103.05 143 93.6Q142.9 88.9 141.4 83.35L137.85 73.15Q133.9 62.8 132.65 56.9Q131.5 50.75 132.45 43.6Q133 39.3 134.95 31.55Q136.65 25.35 137.05 22.15Q137.85 17.5 137.35 14.65L136.7 12.8Q136.4 12.4 134.9 12.4" />
</g>
<g id="PathID_12" transform="matrix(0.376809, 0, 0, 0.376809, 7.2, 8.85)" opacity="1">
<path style="fill:none;stroke-width:2.6;stroke-linecap:round;stroke-linejoin:round;stroke-miterlimit:3;stroke:#00CFFF;stroke-opacity:1" d="M128.05 6.5L122.2 8.1Q115.45 9.7 110.5 7.05L105.6 2.8Q102.7 -0.05 100.15 0Q97.65 0.15 94.2 2.95L88.75 7.45Q81.3 11.8 74.95 12.5Q68.45 11.8 61 7.45L55.7 2.95Q52.15 0.15 49.6 0Q47.1 -0.05 44.15 2.8L39.25 7.05Q34.35 9.7 27.6 8.1L21.9 6.5Q18.45 5.45 15.9 5.3Q3.05 4.65 5.95 23.25Q6.75 28.55 9.65 39.15Q11.8 48.7 10.35 55.5Q9.55 60 4.25 74.2Q0 85.6 0 93.45Q-0.25 115.6 26.8 130.85Q40.6 138.55 53.7 143.7Q60.9 146.5 64.05 147.45Q70.2 149.3 74.95 149.3Q79.6 149.3 85.7 147.45L96.05 143.7Q109.05 138.55 123 130.85Q149.95 115.6 149.95 93.45Q149.8 85.6 145.55 74.2Q140.35 60 139.45 55.5Q138.1 48.7 140.25 39.15Q143.05 28.55 143.95 23.25Q146.85 4.65 133.85 5.3Q131.35 5.45 128.05 6.5z" />
<path style="fill:none;stroke-width:2.6;stroke-linecap:round;stroke-linejoin:round;stroke-miterlimit:3;stroke:#00CFFF;stroke-opacity:1" d="M136.65 12.75L137.3 14.6Q137.7 17.4 136.9 22.05Q136.5 25.35 134.95 31.45Q132.95 39.3 132.4 43.55Q131.5 50.7 132.55 56.8Q133.85 62.8 137.7 73.15L141.3 83.35Q142.75 88.8 142.9 93.55Q143.05 103 136.25 111.2Q130.55 118.5 119.55 124.75Q106.25 132.3 93.55 137.2L92.45 137.6L83.6 140.8Q78.55 142.4 74.95 142.4Q71.25 142.4 66.05 140.8L57.3 137.6L56.4 137.2Q43.75 132.3 30.25 124.75Q19.2 118.5 13.5 111.2Q6.9 103 6.9 93.55Q6.9 88.8 8.6 83.35Q9.55 79.9 12.05 73.15L15 65.3Q16.45 60.8 17.1 56.8Q18.45 50.7 17.5 43.55Q16.85 39.15 14.85 31.45Q13.25 24.85 12.85 22.05Q12.05 17.4 12.6 14.6Q12.7 13.15 13.25 12.75Q13.5 12.35 15 12.35L15.5 12.35Q17.65 12.5 22.15 13.8L27.05 15.15L32.75 15.8Q37.95 15.8 42.7 13.3Q44.7 12.1 47.9 8.9L49.6 7.3L52.95 9.7Q55.7 12.35 57.3 13.3Q66.2 18.7 74.3 19.4L74.95 19.4L75.5 19.4Q83.7 18.7 92.45 13.3L97 9.7L100.15 7.3L101.9 8.9Q105.1 12.1 107.2 13.3Q112 15.8 117.15 15.8L122.7 15.15L127.65 13.8Q132.15 12.5 134.25 12.35L134.8 12.35Q136.25 12.35 136.65 12.75z" />
</g>
</svg>
